<?xml version="1.0" encoding="utf-8"?>
<!-- Generator: Adobe Illustrator 23.0.3, SVG Export Plug-In . SVG Version: 6.00 Build 0)  -->
<svg version="1.1" xmlns="http://www.w3.org/2000/svg" xmlns:xlink="http://www.w3.org/1999/xlink" x="0px" y="0px"
	 viewBox="0 0 669.8 502.7" style="enable-background:new 0 0 669.8 502.7;" xml:space="preserve">
<style type="text/css">
	.st0{fill:#202124;}
	.st1{fill:#F4F4F4;}
	.st2{fill:#FFFFFF;stroke:#202124;stroke-width:0.75;stroke-miterlimit:10;}
	.st3{fill:#202124;stroke:#202124;stroke-width:0.75;stroke-miterlimit:10;}
	.st4{fill:#5185EC;}
	.st5{fill:#B1CEFC;}
	.st6{fill:#EB506E;}
	.st7{fill:#E0E0E0;}
	.st8{fill:none;stroke:#202124;stroke-width:0.75;stroke-miterlimit:10;}
	.st9{fill:#E2E2E2;}
	.st10{fill:#040844;}
	.st11{fill:none;}
	.st12{fill:#F7CD5B;}
	.st13{fill:#FFFFFF;}
	.st14{fill:#E3E4E5;}
	.st15{fill:#BCBCBC;}
	.st16{fill:#EFEFEF;}
</style>
<g id="background">
	<g id="table">
		<path class="st0" d="M167.4,308.6c167.2,6.7,334.3,13.3,501.5,20c-0.3,3.7-0.7,7.4-1,11.1c-40.2,35.4-80.4,70.8-120.6,106.2
			c-170.2-9.4-340.5-18.8-510.7-28.2c-0.6-3.2-1.3-6.3-1.9-9.5C78.9,375.1,123.1,341.8,167.4,308.6z"/>
		<polygon class="st1" points="161.8,296.8 668.9,328.6 541.7,434.2 34.6,408.3 		"/>
	</g>
	<g id="coffee">
		<path class="st2" d="M426.7,388.8c1.9-1.2,37.6-20.6,37.6-20.6l44.5,15.7l-32.2,23.6L426.7,388.8z"/>
		<polygon class="st3" points="479.3,390.4 455.1,390.4 449.3,341.7 486.1,341.7 		"/>
		<ellipse class="st2" cx="467.7" cy="342.3" rx="19" ry="4"/>
		<path class="st2" d="M481,340.6c-1.5,1-5.9,3.6-12.2,3.8c-7.3,0.2-12.3-3-13.7-3.9c0.1-1.2,0.3-2.4,0.4-3.6
			c2.5-0.9,6.9-2.1,12.6-2c5.8,0.1,10.3,1.6,12.7,2.7C480.8,338.6,480.9,339.6,481,340.6z"/>
		<ellipse class="st2" cx="468.1" cy="337.2" rx="12.7" ry="4.5"/>
	</g>
	<g id="pen_and_pencil">
		<polygon class="st4" points="405.3,353.6 443.8,330.6 446,330.6 446,333.2 408.3,356.2 		"/>
		<path class="st2" d="M405.6,353.8c-1.2,1.6-2.3,3.2-3.5,4.8c2-0.8,4.1-1.6,6.1-2.5c0-0.2-0.1-0.9-0.6-1.5
			C406.9,353.8,405.7,353.8,405.6,353.8z"/>
		<path class="st5" d="M410.1,358.2c11.9-6,23.7-12,35.6-18c0.6-0.2,1.2,0,1.6,0.4c0.4,0.5,0.6,1.2,0.3,1.8
			c-12,5.8-23.9,11.6-35.9,17.4C411.2,359.3,410.6,358.7,410.1,358.2z"/>
		<path class="st2" d="M410.3,358.4c-1.1,1.1-2.2,2.3-3.3,3.4c1.5-0.7,3.1-1.4,4.6-2C411.3,359.4,410.8,358.9,410.3,358.4z"/>
	</g>
	<g id="stickers">
		<path class="st6" d="M523.8,329.7c-1,1.8-2.4,3.9-4.6,5.8c-7,6.1-15.8,5.6-18.1,5.4c2.3,1.4,4.8,2.7,7.7,3.8
			c11.6,4.8,22.5,4.6,29.6,3.8c2.7-5,5.4-10,8.1-15C538.9,332.3,531.3,331,523.8,329.7z"/>
		<path class="st5" d="M537.5,335.4c-0.1,1.4-0.4,2.9-1,4.5c-2.6,7.3-9.5,10.6-11.7,11.5c2.2,1.4,7,4.1,13.6,4.7
			c6.7,0.6,11.8-1.3,14.2-2.3c2.1-5.4,4.1-10.8,6.2-16.1C551.8,336.8,544.6,336.1,537.5,335.4z"/>
	</g>
	<g id="papers">
		<path class="st7" d="M216.5,344.4c-0.2-0.2,52.9,6.8,52.9,6.8l41.1-30.9l-49.1-5.1L216.5,344.4z"/>
		<line class="st8" x1="266.1" y1="321" x2="291.3" y2="324.1"/>
		<line class="st8" x1="245.3" y1="330.4" x2="285.2" y2="334.9"/>
		<line class="st8" x1="256.4" y1="325.2" x2="278.7" y2="327.6"/>
		<line class="st8" x1="238.4" y1="338.3" x2="273.1" y2="342.3"/>
		<polygon class="st7" points="204.9,333.2 251,344.4 290.2,312 251.9,307 		"/>
		<ellipse class="st4" cx="252.8" cy="310.7" rx="2.9" ry="1.6"/>
		<line class="st8" x1="258.4" y1="312.3" x2="276.7" y2="315.2"/>
		<line class="st8" x1="243.1" y1="316.9" x2="272.7" y2="321.5"/>
		<line class="st8" x1="235.3" y1="320.1" x2="257.9" y2="324.2"/>
		<line class="st8" x1="226.4" y1="325" x2="257.9" y2="331.8"/>
	</g>
	<g id="mouse">
		<path class="st9" d="M309.2,386c-1.4-4.9,5.6-11.5,11.2-14.6c14.9-8.2,36.9-1.5,37.9,5.5c0.8,5.5-11.3,12.1-20.4,14.4
			C326.3,394.2,311,392.2,309.2,386z"/>
	</g>
</g>
<g id="guy">
	<g id="torso_1_">
		<path class="st10" d="M31.9,262.2c-1,0.4-4.3,1.9-6.5,5.5c-2,3.4-1.9,6.6-1.8,7.8c-0.8,6.1-1.5,13.9-1.7,22.9
			c-0.1,3.2-0.3,15,1.5,30.6c0.4,3.4,2,16.8,6.5,34.4c1.3,5,4.1,15.5,9.6,30.6c5.5,14.9,14.3,36.1,28.3,61.5c6.6,3.2,14.3,6,23,8
			c38.6,8.9,71.9-5.4,86.2-12.8c-0.2-4-0.4-9.5-0.6-16.1c-0.4-9.6-1.1-26.4-2.1-45.9c-0.7-13-1.8-35.4-3.8-64.4
			c-1-14.7-2-27-2.7-35.9c-3.3-1.8-8-4.3-13.7-7c-8.4-3.9-25.6-11.3-48.9-16.2c-19-4-34.3-4.6-41.8-4.8
			C51,260.3,40.3,261.2,31.9,262.2z"/>
		<g>
			<path class="st11" d="M31.9,262.2c46.5-5.9,94.9,3.5,135.9,26.3"/>
		</g>
		<g>
			<path class="st11" d="M24.4,270.1c-4.9,29.5-2.6,59.9,4.3,89s18.6,56.9,32.5,83.4"/>
		</g>
		<g>
			<path class="st11" d="M168.6,297.6c3.7,49.5,6.4,99,8.3,148.6"/>
		</g>
	</g>
	<g id="hand_right_1_">
		<path class="st12" d="M295.9,383.8c1.9-3.2,3.4-5.6,4.3-7.1c0,0,1.9-3.2,5.2-7.6c1.4-1.8,2.1-2.8,3.4-3.2c2.1-0.6,4.1,0.4,5,1
			c1.5-1.3,3.9-3.1,7.1-4.6c3.8-1.8,7.1-3.3,11.1-2.5c5.5,1.1,8.3,5.7,8.4,6.1c1.4,2.3,1.6,4.6,1.7,5.8c-1.1,0.3-2.6,0.8-4.5,1.5
			c-3.2,1.2-5.4,2.1-7.1,3.6c-2.4,2.1-2.3,3.8-4.1,7c-2.7,4.7-6.5,7.2-9.4,9c-2.9,1.9-8.1,5.3-14.7,4.8c-2.3-0.1-5.1-0.3-6.9-2.4
			C293.3,392.7,293.5,388.1,295.9,383.8z"/>
		<path class="st10" d="M167.8,288.5c-2.2,0.7-5.3,2-8.6,4.2c-9.2,6.1-12.8,14.9-14.6,19.3c-5.2,12.6-3.8,24.3-2.8,29.7
			c1.5,2.4,3.5,5.7,6.1,9.6c5,7.8,14.1,21.4,26.5,37.6c8.9,11.6,19.8,24.8,32.7,38.9c3.9,0,9.5-0.2,16.1-1c10-1.3,19-3.5,32.9-8.4
			c11.2-4,26.2-9.8,43.6-18.3c0.8-1.2,1.8-2.9,2.1-5.2c0.9-7.1-6.1-12.1-6.4-12.3c-8.3,0.2-16.7,0.4-25.1,0.5
			c-13.8,0.2-27.4,0.2-40.7,0c-7.3-12.6-13.4-22.8-17.7-29.8c-15.1-24.6-15.4-23-20.9-33.6c-1.9-3.7-5.2-10.4-11.2-18.5
			c-3.4-4.6-6.5-8.2-8.7-10.6C170,290,168.9,289.3,167.8,288.5z"/>
		<g>
			<path class="st11" d="M169.9,289.4c6,6.2,10.6,13.6,15.2,20.9c15,24.2,30,48.3,45.1,72.5"/>
		</g>
		<g>
			<path class="st11" d="M230.9,382.8c20.9,0,41.9-0.1,62.8-0.1"/>
		</g>
		<g>
			<path class="st11" d="M295.9,383.8c3.9,3.2,6.2,8.3,5.8,13.3"/>
		</g>
		<g>
			<g>
				<path class="st13" d="M141.4,341.9c18.5,29.7,39.6,57.7,63.2,83.6c0.3,0.4,0.9-0.2,0.5-0.5c-23.5-25.8-44.6-53.8-63.1-83.5
					C141.8,341.1,141.1,341.5,141.4,341.9L141.4,341.9z"/>
			</g>
		</g>
		<g>
			<path class="st11" d="M208.2,427.9c5.6,0.4,11.3-0.5,16.8-1.6c25.9-5.2,51.1-14.1,74.6-26.3"/>
		</g>
		<g>
			<path class="st11" d="M296.1,384c2.7-5.2,5.8-10.3,9.3-15c0.9-1.3,2-2.6,3.4-3.2c1.7-0.7,3.7-0.3,5,1"/>
		</g>
		<g>
			<path class="st11" d="M302.3,397.6c11-0.6,21.5-7.7,26.3-17.7c0.5-1.1,1-2.4,1.9-3.2c0.8-0.8,1.8-1.3,2.8-1.7
				c2.9-1.3,5.8-2.4,8.8-3.4"/>
		</g>
		<g>
			<g>
				<path class="st0" d="M311.3,370.4c4.8-6.1,11.6-9.7,19.4-10.1c0.5,0,0.5-0.8,0-0.8c-7.9,0.4-15,4-19.9,10.3
					C310.5,370.3,311,370.8,311.3,370.4L311.3,370.4z"/>
			</g>
		</g>
		<g>
			<g>
				<path class="st0" d="M319.5,369.1c4.5-4.2,10.1-6.6,16.3-7c0.5,0,0.5-0.8,0-0.8c-6.4,0.4-12.1,2.9-16.8,7.2
					C318.6,368.9,319.2,369.4,319.5,369.1L319.5,369.1z"/>
			</g>
		</g>
		<g>
			<g>
				<path class="st0" d="M324.5,370.4c4.2-3.3,9.1-4.9,14.5-4.9c0.5,0,0.5-0.7,0-0.8c-5.5,0-10.5,1.7-14.8,5
					C323.7,370,324.1,370.7,324.5,370.4L324.5,370.4z"/>
			</g>
		</g>
		<g>
			<g>
				<path class="st0" d="M329.3,372.4c3.9-2.7,8.4-3.9,13.1-3.7c0.5,0,0.5-0.7,0-0.8c-4.9-0.2-9.5,1.1-13.5,3.9
					C328.5,372,328.8,372.7,329.3,372.4L329.3,372.4z"/>
			</g>
		</g>
	</g>
	<g id="head_1_">
		<path class="st0" d="M93.2,255c-0.9-1.4-1.7-3-2.5-6.4c-0.8-3-1.6-7.5-1.6-13.2c0.5-1.2,1.2-2.9,2.3-4.8c0.7-1.2,3.2-5.2,8.4-9.5
			c3.1-2.6,9.1-7.4,17.9-8.6c3.2-0.4,6.9-0.8,10.2,1.4c0.7,0.5,3.7,2.7,4.1,6.4c0.2,2.2-0.6,3.9-1.4,5.6c-1.9,3.8-3.8,4.5-6.6,7.9
			c-1.8,2.3-1.4,2.5-5.1,9.1c-2.9,5.2-4.4,7.9-5.7,9.5c-1.5,1.8-7.9,9.6-13.8,8C96.3,259.8,94.4,256.8,93.2,255z"/>
		<path class="st12" d="M124.4,233.5c-0.8,1-1.9,2.6-3.1,4.5c-2.2,3.7-2,4.8-3.7,8c-1.1,2.1-3.2,6-7.5,8.9c-1.2,0.8-2.8,1.5-6,2.8
			c-2.6,1.1-3.6,1.4-4.8,1.3c-1.9-0.1-3.3-1.1-4.1-1.7c-0.3,1.8-0.6,3.5-0.9,5.3c1.7,0.5,3.5,1,5.4,1.4c2.5,0.6,4.9,1.1,7.1,1.4
			c0.5-1.8,1-3.6,1.5-5.4c0.9,0.1,2.1,0.2,3.6,0.1c3.5-0.3,6-1.5,6.7-1.9c1.4-0.7,3.8-2,5.7-4.7c2-2.8,2.3-5.6,2.4-7
			c0.3-2.9-0.2-5.2-1.1-8.8C125.2,236,124.7,234.6,124.4,233.5z"/>
		<g>
			<path class="st11" d="M124,233.9c1.8,3.7,2.9,7.8,2.7,11.9s-1.9,8.2-5.2,10.8c-2.1,1.7-4.7,2.6-7.4,3.2c-2,0.5-4.2,0.8-6.2,0.2"
				/>
		</g>
		<g>
			<g>
				<path class="st0" d="M94.7,257.3c-0.3,1.5-0.5,3.1-0.7,4.6c0,0.5,0.7,0.5,0.8,0c0.1-1.5,0.3-3,0.6-4.4
					C95.5,257.1,94.8,256.9,94.7,257.3L94.7,257.3z"/>
			</g>
		</g>
		<g>
			<g>
				<path class="st0" d="M89,234c-1.6,7.7,0.6,20.6,8,24.9c0.4,0.2,0.8-0.4,0.4-0.6c-6.9-4-9.1-16.9-7.6-24.1
					C89.8,233.8,89.1,233.6,89,234L89,234z"/>
			</g>
		</g>
		<g>
			<g>
				<path class="st0" d="M89.6,234.5c3.7-7.1,9-13,15.9-17c3.4-2,7.2-3.6,11.1-4.4c6.7-1.4,17.6,1.2,14.4,10.8
					c-1.3,4.1-4.9,6.8-7.5,10c-2.3,2.9-3.7,6.1-5.2,9.4c-1.9,4.2-3.9,8.2-7.9,10.9c-3.3,2.2-9.4,5.7-13.3,3.9
					c-0.4-0.2-0.8,0.4-0.4,0.6c3.5,1.6,7.2-0.4,10.5-1.9c4.9-2.3,8.1-5.5,10.5-10.3c2.9-5.9,5.1-10.7,9.6-15.7
					c2.8-3.1,5.8-7,4.9-11.5c-2-9.9-15-7.8-21.6-5.1c-9.4,3.7-17,10.9-21.6,19.9C88.7,234.5,89.4,234.9,89.6,234.5L89.6,234.5z"/>
			</g>
		</g>
	</g>
	<g id="chair">
		<path class="st14" d="M165.7,502.7H12c-6.6,0-12-5.4-12-12l0-181.4c0-6.6,5.4-12,12-12h153.7c6.6,0,12,5.4,12,12v181.4
			C177.7,497.3,172.3,502.7,165.7,502.7z"/>
	</g>
</g>
<g id="girl_and_scren">
	<g id="screen">
		<path class="st15" d="M530.6,269.2V0.4H216.5v268.8h139.7v44.4c-13,1.1-22.5,4.8-22.5,9.2c0,5.3,13.8,9.5,30.8,9.5
			c17,0,30.8-4.3,30.8-9.5c0-4.4-9.5-8.1-22.5-9.2v-44.3H530.6z"/>
		<rect x="223.5" y="6.1" class="st2" width="300" height="233.9"/>
	</g>
	<g id="hand_right">
		<path class="st12" d="M302.1,246.1c-0.2,0-3.8,0.1-5.5,3c-1.3,2.2-1.1,5.1,0.5,7.4c0.8,1.2,2,2.7,3.7,4.3c3.1,2.9,6.1,4.4,7.5,5.1
			c3.4,1.5,5.7,2.6,8.6,2.1c3.8-0.6,6.2-3.2,7.2-4.5c-0.2-0.6-0.5-1.4-1.1-2.2c-1.2-1.5-2.9-2-3.4-2.1c-1.8-0.6-4.5-2.1-8.6-6.1
			c0.6-0.5,1.2-1.2,1.1-2c-0.1-1-1.4-1.4-4-2.5C303.2,246.4,303.3,246.1,302.1,246.1z"/>
		<path class="st10" d="M300.8,113.3c-4.5,4-10.7,10.3-16.3,19.2c-3.2,5-4.8,8.8-8,16c-3.7,8.4-8.2,18.9-11.5,33.3
			c-1.2,5.2-2.5,12.2-3.2,20.7c0.6,1.9,1.4,4.5,2.6,7.7c2.8,7.7,6.4,17.7,14.1,27.7c3.7,4.9,7.5,8.5,11.4,12.4
			c3.4,3.3,6.4,5.9,8.6,7.8c1.3-4,2.6-7.9,3.9-11.9c-1.3-3.6-2.6-7.4-3.9-11.3c-4-12.8-6.6-24.8-8.3-35.9c0.5-1.5,1.3-3.8,2.3-6.5
			c3.2-8.5,5.9-14.3,8.3-19.6c2.3-5.2,5.6-12.6,9.6-22c6.5-8.7,7.6-19.8,2.8-27.9C309.4,116.7,303.2,114.1,300.8,113.3z"/>
		<g>
			<path class="st11" d="M298.8,114.2c-8.5,7.5-14.4,17.5-19.3,27.8c-8.9,18.4-15.3,38.1-18.1,58.4"/>
		</g>
		<g>
			<path class="st11" d="M261.8,202.6c5.2,17.1,13,34,26.2,46.1c3.6,3.3,7.5,6.1,10.9,9.5c0.2,0.2,0.4,0.5,0.3,0.8s-0.6-0.2-0.3-0.2
				"/>
		</g>
		<g>
			<path class="st11" d="M308.1,155.8c-6,14.2-11.9,28.4-17.9,42.7"/>
		</g>
		<g>
			<path class="st11" d="M290.6,199.4c1.9,15.9,5.8,31.6,11.5,46.7"/>
		</g>
		<g>
			<g>
				<path class="st0" d="M302.2,246.6c1.6,0.7,3.3,1.5,4.9,2.2c0.6,0.3,5.8,2.2,4.5,3.4c-0.4,0.3,0.2,0.9,0.5,0.5
					c1-1,0.3-2.1-0.7-2.7c-2.7-1.7-6-2.7-8.9-4C302.1,245.8,301.7,246.4,302.2,246.6L302.2,246.6z"/>
			</g>
		</g>
		<g>
			<g>
				<path class="st0" d="M298.2,258.5c4.7,5.8,11.2,9.3,18.7,9.8c0.5,0,0.5-0.7,0-0.8c-7.2-0.6-13.6-4-18.1-9.6
					C298.4,257.6,297.9,258.1,298.2,258.5L298.2,258.5z"/>
			</g>
		</g>
		<g>
			<g>
				<path class="st0" d="M310.1,252.9c2,1.6,4.1,3.1,6.2,4.6c2,1.3,7.1,3.3,7.4,5.9c0.1,0.5,0.8,0.5,0.8,0c-0.2-2-1.8-3-3.5-3.9
					c-3.6-2.1-7.1-4.5-10.4-7.1C310.2,252.1,309.7,252.6,310.1,252.9L310.1,252.9z"/>
			</g>
		</g>
		<g>
			<g>
				<path class="st0" d="M306.8,262c4.1,1,7.8,2.7,11.4,4.9c0.4,0.3,0.8-0.4,0.4-0.6c-3.6-2.3-7.4-3.9-11.5-5
					C306.5,261.1,306.3,261.9,306.8,262L306.8,262z"/>
			</g>
		</g>
		<g>
			<g>
				<path class="st0" d="M310.6,260.1c3.3,0.6,6.2,2.3,8.3,5c0.3,0.4,0.9,0,0.6-0.4c-2.2-2.8-5.2-4.7-8.7-5.3
					C310.3,259.3,310.1,260,310.6,260.1L310.6,260.1z"/>
			</g>
		</g>
		<g>
			<g>
				<path class="st0" d="M313.4,258.5c3.2,1.2,5.8,3.3,7.8,6c0.3,0.4,0.9,0,0.6-0.4c-2.1-2.9-4.9-5.1-8.2-6.4
					C313.2,257.6,313,258.3,313.4,258.5L313.4,258.5z"/>
			</g>
		</g>
	</g>
	<g id="torso">
		<path class="st10" d="M302.4,111.8c-1.3,1.4-2.9,3.4-4.1,6.1c-3.3,7.4-1.3,14.5-0.6,16.8c0.7,4,1.7,9,3,14.9
			c2.9,13.4,6,24.1,8,30.8c5.8,19.1,11.7,33.5,16.5,44.9c2.2,5.4,4.2,9.8,5.6,12.9c31.8-0.3,63.7-0.5,95.5-0.8
			c0.1-2.6,0.2-6.6,0.2-11.4c0,0,0.2-11.7,0.2-21.6c-0.1-27.8-3.1-62-3.4-65.7c-0.6-6.9-1.5-16.4-2.9-27.7
			c-2.5-1.2-6.1-2.7-10.4-4.2c-3-1.1-16.8-5.7-36.3-6.7c-15.2-0.8-26.8,1-33,2c-10.3,1.7-19.5,4.2-24.8,5.6
			C310.4,109.3,305.8,110.8,302.4,111.8z"/>
		<g>
			<path class="st11" d="M302,112.3c19.1-6.7,39-11.3,59.3-12.1c20.2-0.8,40.8,2.4,59.2,10.9"/>
		</g>
		<g>
			<g>
				<path class="st13" d="M297.4,134.8c6.4,35.1,17.3,69.2,32.4,101.5c0.2,0.4,0.9,0.1,0.6-0.4c-15.1-32.2-26-66.3-32.3-101.3
					C298.1,134.1,297.3,134.3,297.4,134.8L297.4,134.8z"/>
			</g>
		</g>
		<g>
			<g>
				<path class="st0" d="M422.8,137.4c3,30.2,4.1,60.4,3.4,90.7c0,0.5,0.7,0.5,0.8,0c0.7-30.3-0.4-60.6-3.4-90.7
					C423.5,136.9,422.7,136.9,422.8,137.4L422.8,137.4z"/>
			</g>
		</g>
	</g>
	<g id="present">
		<path class="st16" d="M326.3,187.6c-5.2,2-10.7,3.9-16.4,5.7c-9.6,3-18.7,5.4-27.2,7.2c0.2,2.9,0.5,5.8,0.7,8.7
			c1.8,0.6,3.6,1.1,5.4,1.7c1.7,17.4,3.5,34.7,5.2,52.1c8.9,3.3,16.3,5.7,21.2,7.3c12,3.9,20.1,6,38,11.9c2.2,0.7,4,1.3,5.1,1.7
			c2-1.4,4.8-3.4,8.2-6c12.6-9.5,21.1-17.4,23.3-19.5c2.4-2.2,5.5-5.3,9.2-9.1c0-4.5,0.1-9,0.1-13.5c0.1-10.5,0.1-21,0-31.3
			c1.1-1,2.1-2,3.2-3.1c0-2.9,0-5.7,0.1-8.6c-15.7-2.1-31.5-4.3-47.2-6.4c1.9-3,3.9-6.1,6.2-9.3c1.4-2,2.8-3.9,4.3-5.7
			c-0.5-1.1-1.3-2.7-2.6-4.3c-0.4-0.5-1.5-1.7-5.4-4.6c-1.2-0.9-2.8-2.1-4.9-3.4c-0.6,0.7-1.4,1.9-2.1,3.4c-1.6,3.1-2,5.8-2.2,7.2
			c-0.6,3.3-1.5,7.8-3,14c-0.8-0.2-2-0.4-3.5-0.2c-1.6,0.2-2.8,0.7-3.5,1c-2.4-3.5-4.1-6.6-5.2-8.8c-1.2-2.4-2.1-4.4-3.3-7
			c-1.3-3-2.4-5.5-3.1-7.3c-1,0.7-2.5,1.9-3.3,4c-0.5,1.2-0.6,2.4-0.5,4.8c0.2,4.6,0.9,8.1,0.9,8.5C324.2,181,325,184.1,326.3,187.6
			z"/>
		<g>
			<g>
				<path class="st0" d="M288.4,211.5c1.3,16.9,3,33.7,5.2,50.5c0.1,0.5,0.8,0.5,0.8,0c-2.2-16.8-3.9-33.6-5.2-50.5
					C289.1,211,288.3,211,288.4,211.5L288.4,211.5z"/>
			</g>
		</g>
		<g>
			<g>
				<path class="st0" d="M295.1,263.8c20.4,7.5,41.1,14.3,62.1,20.1c0.5,0.1,0.7-0.6,0.2-0.7c-21-5.9-41.7-12.6-62.1-20.1
					C294.9,262.9,294.7,263.6,295.1,263.8L295.1,263.8z"/>
			</g>
		</g>
		<g>
			<g>
				<path class="st0" d="M354.1,230.5c0.6,17.2,1.6,34.4,3.1,51.6c0,0.5,0.8,0.5,0.8,0c-1.5-17.2-2.5-34.3-3.1-51.6
					C354.9,230,354.1,230,354.1,230.5L354.1,230.5z"/>
			</g>
		</g>
		<g>
			<g>
				<path class="st0" d="M359.7,283.3c14.2-9.9,27.4-21.1,39.5-33.5c0.3-0.3-0.2-0.9-0.5-0.5c-12,12.4-25.2,23.6-39.3,33.4
					C358.9,282.9,359.3,283.6,359.7,283.3L359.7,283.3z"/>
			</g>
		</g>
		<g>
			<g>
				<path class="st0" d="M399.4,246c0-13.8,0-27.6,0-41.4c0-0.5-0.8-0.5-0.8,0c0,13.8,0,27.6,0,41.4
					C398.7,246.5,399.4,246.5,399.4,246L399.4,246z"/>
			</g>
		</g>
		<g>
			<g>
				<path class="st0" d="M283.2,209.7c23,7.3,46.1,14.2,69.3,20.7c0.5,0.1,0.7-0.6,0.2-0.7c-23.2-6.5-46.3-13.4-69.3-20.7
					C282.9,208.8,282.7,209.5,283.2,209.7L283.2,209.7z"/>
			</g>
		</g>
		<g>
			<g>
				<path class="st0" d="M353.2,230c16.5-8.9,32.8-18.1,49-27.5c0.4-0.2,0-0.9-0.4-0.6c-16.2,9.5-32.5,18.6-49,27.5
					C352.4,229.5,352.8,230.2,353.2,230L353.2,230z"/>
			</g>
		</g>
		<g>
			<g>
				<path class="st0" d="M283.7,209.2c-0.2-2.9-0.5-5.8-0.7-8.6c0-0.5-0.8-0.5-0.8,0c0.2,2.9,0.5,5.8,0.7,8.6
					C283,209.7,283.7,209.7,283.7,209.2L283.7,209.2z"/>
			</g>
		</g>
		<g>
			<g>
				<path class="st0" d="M282.9,200.6c22.8,8.1,46,14.9,69.5,20.4c0.5,0.1,0.7-0.6,0.2-0.7c-23.5-5.5-46.7-12.3-69.5-20.4
					C282.7,199.7,282.5,200.5,282.9,200.6L282.9,200.6z"/>
			</g>
		</g>
		<g>
			<g>
				<path class="st0" d="M352,220.6c0.1,3,0.2,6.1,0.3,9.1c0,0.5,0.8,0.5,0.8,0c-0.1-3-0.2-6.1-0.3-9.1
					C352.7,220.1,351.9,220.1,352,220.6L352,220.6z"/>
			</g>
		</g>
		<g>
			<g>
				<path class="st0" d="M352.8,220.6c16.5-8.9,33-17.8,49.5-26.6c0.4-0.2,0-0.9-0.4-0.6c-16.5,8.9-33,17.8-49.5,26.6
					C352,220.2,352.4,220.8,352.8,220.6L352.8,220.6z"/>
			</g>
		</g>
		<g>
			<g>
				<path class="st0" d="M402.1,194c0.1,2.5,0,5.1-0.2,7.6c0,0.5,0.7,0.5,0.8,0c0.2-2.5,0.3-5.1,0.2-7.6
					C402.8,193.5,402.1,193.5,402.1,194L402.1,194z"/>
			</g>
		</g>
		<g>
			<g>
				<path class="st0" d="M283.4,200.5c14.3-3.5,28.4-7.6,42.3-12.3c0.5-0.2,0.3-0.9-0.2-0.7c-13.9,4.7-28,8.8-42.3,12.3
					C282.8,199.9,283,200.7,283.4,200.5L283.4,200.5z"/>
			</g>
		</g>
		<g>
			<g>
				<path class="st0" d="M355,186.9c15.7,2.4,31.5,4.6,47.3,6.5c0.5,0.1,0.5-0.7,0-0.8c-15.7-1.9-31.5-4-47.1-6.4
					C354.7,186.1,354.5,186.9,355,186.9L355,186.9z"/>
			</g>
		</g>
		<g>
			<g>
				<path class="st0" d="M340.3,191c-0.2,1.3-0.4,2.6-0.4,3.9c0,0.7-0.2,1.8,0.2,2.4c0.3,0.5,0.8,0.7,1.3,0.8c1.3,0.2,2.7,0.2,4,0.3
					c0.5,0,0.5-0.7,0-0.8c-1.3-0.1-4.5,0.2-4.8-1.3c-0.3-1.6,0.1-3.6,0.4-5.1C341.1,190.7,340.3,190.5,340.3,191L340.3,191z"/>
			</g>
		</g>
		<g>
			<g>
				<path class="st0" d="M341.6,190.9c0.9,0,1.8,0,2.7,0c0.5,0,0.5-0.8,0-0.8c-0.9,0-1.8,0-2.7,0
					C341.1,190.2,341.1,190.9,341.6,190.9L341.6,190.9z"/>
			</g>
		</g>
		<g>
			<g>
				<path class="st0" d="M346.5,195.3c-2.7-6.2-0.7-13.2,0.8-19.5c1.2-5.6,2.8-11.1,5.3-16.3c0.2-0.4-0.4-0.8-0.6-0.4
					c-3,6.3-4.6,13-6,19.8c-1.2,5.7-2.3,11.2,0,16.7C346,196.2,346.7,195.8,346.5,195.3L346.5,195.3z"/>
			</g>
		</g>
		<g>
			<g>
				<path class="st0" d="M352.3,159.4c4.3,6,1,13.1-0.9,19.4c-1.8,5.7-3.5,11.3-5.3,17c-0.1,0.5,0.6,0.7,0.7,0.2
					c2.3-7.4,4.7-14.8,7-22.2c1.5-5.1,2.5-10.1-0.8-14.7C352.7,158.6,352.1,159,352.3,159.4L352.3,159.4z"/>
			</g>
		</g>
		<g>
			<g>
				<path class="st0" d="M347.2,195.9c6.8-7,12.6-14.9,17.3-23.4c0.2-0.4-0.4-0.8-0.6-0.4c-4.7,8.5-10.4,16.3-17.1,23.3
					C346.3,195.8,346.8,196.3,347.2,195.9L347.2,195.9z"/>
			</g>
		</g>
		<g>
			<g>
				<path class="st0" d="M352.9,159.4c4.3,3.8,10,6.5,12.2,12.2c0.2,0.4,0.9,0.3,0.7-0.2c-2.3-5.8-8-8.6-12.4-12.5
					C353.1,158.6,352.6,159.1,352.9,159.4L352.9,159.4z"/>
			</g>
		</g>
		<g>
			<g>
				<path class="st0" d="M341.1,189.8c-5.4-9.1-10.1-18.6-14.1-28.5c-0.2-0.4-0.9-0.2-0.7,0.2c4,9.9,8.7,19.5,14.2,28.7
					C340.7,190.6,341.3,190.2,341.1,189.8L341.1,189.8z"/>
			</g>
		</g>
		<g>
			<g>
				<path class="st0" d="M325.2,161.4c-3,4.7-4,8-0.6,12.7c4.6,6.3,10,12.2,15.4,17.9c0.3,0.3,0.9-0.2,0.5-0.5
					c-3.5-3.7-7-7.5-10.2-11.5c-1.7-2-3.4-4-4.9-6.2c-1.8-2.5-2.2-3.2-1.6-6.4c0.5-2.7,0.8-3.4,2.2-5.6
					C326.1,161.3,325.4,161,325.2,161.4L325.2,161.4z"/>
			</g>
		</g>
		<g>
			<g>
				<path class="st0" d="M322.6,168.8c0.4,5.5,0.2,13.9,3.4,18.6c2.7,4,8.9,6,13.4,7c0.5,0.1,0.7-0.6,0.2-0.7c-5.2-1.2-12-3.4-14-9
					c-1.8-4.9-1.8-10.7-2.2-15.9C323.4,168.3,322.6,168.3,322.6,168.8L322.6,168.8z"/>
			</g>
		</g>
		<g>
			<g>
				<path class="st0" d="M338.8,184.8c1.9-0.9,3.9-1.1,6-0.7c0.5,0.1,0.7-0.6,0.2-0.7c-2.3-0.5-4.5-0.2-6.5,0.8
					C337.9,184.4,338.3,185,338.8,184.8L338.8,184.8z"/>
			</g>
		</g>
		<g>
			<g>
				<path class="st0" d="M308.3,207.5c10.6-3.5,21.3-7.1,31.8-10.9c0.5-0.2,0.3-0.9-0.2-0.7c-10.6,3.7-21.2,7.4-31.8,10.9
					C307.7,207,307.9,207.7,308.3,207.5L308.3,207.5z"/>
			</g>
		</g>
		<g>
			<g>
				<path class="st0" d="M323,211.3c6.6-4.2,13.2-8.3,19.8-12.5c0.4-0.3,0-0.9-0.4-0.6c-6.6,4.2-13.2,8.3-19.8,12.5
					C322.2,210.9,322.6,211.6,323,211.3L323,211.3z"/>
			</g>
		</g>
		<g>
			<g>
				<path class="st0" d="M344,198.4c9.5,3.2,18.9,6.8,28.1,10.8c0.4,0.2,0.8-0.5,0.4-0.6c-9.3-4-18.7-7.7-28.2-10.9
					C343.7,197.6,343.5,198.3,344,198.4L344,198.4z"/>
			</g>
		</g>
		<g>
			<g>
				<path class="st0" d="M348.5,196.4c11.8,2.6,23.6,4.9,35.5,6.7c0.5,0.1,0.7-0.6,0.2-0.7c-11.9-1.8-23.7-4.1-35.5-6.7
					C348.2,195.6,348,196.3,348.5,196.4L348.5,196.4z"/>
			</g>
		</g>
		<g>
			<g>
				<path class="st0" d="M348.7,196.2c6.2-2.2,12.3-4.5,18.5-6.7c0.5-0.2,0.3-0.9-0.2-0.7c-6.2,2.2-12.3,4.5-18.5,6.7
					C348.1,195.6,348.2,196.3,348.7,196.2L348.7,196.2z"/>
			</g>
		</g>
		<g>
			<g>
				<path class="st0" d="M311.5,193.4c9.3,1.3,18.7,2.1,28.1,2.4c0.5,0,0.5-0.7,0-0.8c-9.3-0.3-18.6-1.1-27.9-2.4
					C311.3,192.6,311.1,193.4,311.5,193.4L311.5,193.4z"/>
			</g>
		</g>
		<g>
			<g>
				<path class="st0" d="M322.9,189.3c1.7,0.1,3.4,0.3,5.1,0.6c0.5,0.1,0.7-0.6,0.2-0.7c-1.8-0.3-3.5-0.5-5.3-0.6
					C322.4,188.5,322.4,189.2,322.9,189.3L322.9,189.3z"/>
			</g>
		</g>
		<g>
			<g>
				<path class="st0" d="M307.8,208.8c0.1,2.7,0.4,5.3,0.9,7.9c0.1,0.5,0.8,0.3,0.7-0.2c-0.5-2.5-0.8-5.1-0.9-7.7
					C308.6,208.3,307.8,208.3,307.8,208.8L307.8,208.8z"/>
			</g>
		</g>
		<g>
			<g>
				<path class="st0" d="M322.8,213.4c0.2,3,0.5,6.1,1,9.1c0.1,0.5,0.8,0.3,0.7-0.2c-0.5-2.9-0.8-5.9-1-8.9
					C323.5,212.9,322.8,212.9,322.8,213.4L322.8,213.4z"/>
			</g>
		</g>
		<g>
			<g>
				<path class="st0" d="M372.3,210c0,2.6-0.1,5.2-0.1,7.8c0,0.5,0.7,0.5,0.8,0c0-2.6,0.1-5.2,0.1-7.8
					C373,209.5,372.3,209.5,372.3,210L372.3,210z"/>
			</g>
		</g>
		<g>
			<g>
				<path class="st0" d="M384.1,204c-0.4,2.4-0.7,4.8-1.1,7.2c-0.1,0.5,0.6,0.7,0.7,0.2c0.4-2.4,0.8-4.8,1.1-7.2
					C384.9,203.7,384.2,203.5,384.1,204L384.1,204z"/>
			</g>
		</g>
		<g>
			<g>
				<path class="st0" d="M316,219.6c1.9,17.2,0,34.5,1.3,51.7c0,0.5,0.8,0.5,0.8,0c-1.3-17.2,0.5-34.5-1.3-51.7
					C316.7,219.1,316,219.1,316,219.6L316,219.6z"/>
			</g>
		</g>
		<g>
			<g>
				<path class="st0" d="M331.4,224.3c-0.8,17.1-1.6,34.2-0.3,51.3c0,0.5,0.8,0.5,0.8,0c-1.2-17.1-0.5-34.2,0.3-51.3
					C332.2,223.8,331.4,223.8,331.4,224.3L331.4,224.3z"/>
			</g>
		</g>
		<g>
			<g>
				<path class="st0" d="M372.7,219.4c-1.1,17.9-1.4,35.9-1,53.8c0,0.5,0.8,0.5,0.8,0c-0.5-18-0.1-35.9,1-53.8
					C373.4,218.9,372.7,218.9,372.7,219.4L372.7,219.4z"/>
			</g>
		</g>
		<g>
			<g>
				<path class="st0" d="M381.6,214.6c-1.3,16.8-1.1,33.7,0.7,50.5c0,0.5,0.8,0.5,0.8,0c-1.7-16.8-1.9-33.7-0.7-50.5
					C382.4,214.1,381.6,214.1,381.6,214.6L381.6,214.6z"/>
			</g>
		</g>
		<path class="st6" d="M315.7,219.7c0.4,17,0.7,33.9,1.1,50.9c5,1.7,10,3.4,15,5c0.2-17,0.3-34.1,0.5-51.1
			C326.8,223,321.2,221.3,315.7,219.7z"/>
		<path class="st6" d="M307.6,208.9c0.2,2.6,0.4,5.2,0.6,7.8c5.5,1.7,11.1,3.4,16.6,5c-0.3-2.7-0.6-5.4-0.9-8.1
			C318.5,212,313.1,210.4,307.6,208.9z"/>
		<path class="st6" d="M306,207.5l33.7-11.5l0.6,1.5c1.1,0.3,2.2,0.5,3.2,0.8c-6.7,4.8-13.4,9.6-20.1,14.4c-3.2-0.9-6.4-1.8-9.6-2.8
			C311.1,209.1,308.5,208.3,306,207.5z"/>
		<path class="st6" d="M309.6,193.5c5.2,0.6,10.6,1.1,16.2,1.6c4.8,0.4,9.5,0.7,14.1,0.9c0-0.5,0-1-0.1-1.5
			c-1.1-0.2-2.7-0.6-4.5-1.1c-0.9-0.3-2-0.7-3.3-1.3c-1.3-0.6-3-1.6-5-3.2c-0.8-0.1-1.6-0.1-2.4-0.2
			C319.7,190.2,314.6,191.9,309.6,193.5z"/>
		<path class="st6" d="M343.4,198.4c0.8-0.1,1.9-0.3,3.1-0.7c1.4-0.5,2.4-1.3,3.1-1.8c11.8,2.3,23.6,4.5,35.3,6.8
			c-4.2,2.3-8.5,4.6-12.7,6.9C362.6,205.7,353,202,343.4,198.4z"/>
		<path class="st6" d="M355,186.8c-2.7,3.1-5.5,6.1-8.2,9.2c0.8,0.2,1.5,0.5,2.3,0.7c6.4-2.5,12.9-5.1,19.3-7.6
			C364,188.3,359.5,187.5,355,186.8z"/>
		<path class="st6" d="M372.2,210.2c-0.1,2.9-0.2,5.8-0.2,8.7c4-2.2,8-4.4,12-6.6c0.4-3,0.8-6.1,1.2-9.1
			C380.8,205.5,376.5,207.8,372.2,210.2z"/>
		<path class="st6" d="M372.6,210.1"/>
		<path class="st6" d="M372.3,219.4c-0.3,8.4-0.5,17-0.6,25.6c-0.2,9.8-0.3,19.5-0.3,29.1c3.9-3.2,7.8-6.4,11.7-9.7
			c0.3-17.1,0.7-34.2,1-51.4C380.1,215.1,376.2,217.3,372.3,219.4z"/>
	</g>
	<g id="hand_left">
		<path class="st12" d="M388.8,241.2c-0.8,0.1-2.1,0.8-4.5,2.2c-4,2.3-5.5,3.7-6.7,5.2c-0.9,1.1-1.8,2.3-1.3,3.3
			c0.5,1.1,2.5,1.2,2.7,1.2c-0.1,1.5-0.5,3.6-1.5,6.1c-2.7,6.6-7.6,9.5-6.6,11.3c0.6,1.1,2.9,1.1,4.3,0.8c2.5-0.5,3.5-2.3,5.9-4.9
			c4.3-4.8,5.2-3.6,9.2-8.3c2.3-2.7,3.3-4.6,4.5-6.8c1.8-3.4,1.7-4.3,1.7-4.8C396,243.5,392.1,240.9,388.8,241.2z"/>
		<path class="st10" d="M423.4,113c-2.4,1.1-4.9,2.8-7.3,5c-10.4,9.7-10.4,24-10.3,27.7c2.4,6.4,4.7,13.3,6.8,20.4
			c3.8,12.7,6.7,24.8,8.8,36c-6.6,7.1-13.2,14.4-19.9,21.9c-4.8,5.3-9.4,10.7-14,15.9c0.7,0.7,1.5,1.5,2.2,2.4
			c2.6,3.4,3.5,7,3.8,9.3c2.1-0.6,5.1-1.4,8.6-2.6c11.2-3.8,19.1-7.8,29.6-13.4c12.2-6.4,22.6-12.1,31.2-16.9c0-1.7-0.1-4.1-0.4-7.1
			c-0.6-7-1.9-12.1-4-20.1c-2.5-9.5-3.7-14.3-5.6-20.6c-3.5-12.2-6-19.4-6.8-21.9c-4.2-12.1-6.1-16-7.9-19
			c-3.3-5.5-6.5-9.1-8.1-10.8C427.7,116.6,425.3,114.5,423.4,113z"/>
		<g>
			<path class="st11" d="M423.4,113c7,5.5,12.8,12.6,16.8,20.6c2.8,5.6,4.7,11.6,6.6,17.5c6.8,21.2,13.4,42.6,16.3,64.6"/>
		</g>
		<g>
			<g>
				<path class="st13" d="M405.4,145.8c6.7,18.2,11.9,36.9,15.7,56c0.1,0.5,0.8,0.3,0.7-0.2c-3.8-19.1-9-37.7-15.7-56
					C405.9,145.1,405.2,145.3,405.4,145.8L405.4,145.8z"/>
			</g>
		</g>
		<g>
			<g>
				<path class="st13" d="M421.2,201.8c-11.5,12.4-22.8,25-33.9,37.8c-0.3,0.4,0.2,0.9,0.5,0.5c11.1-12.8,22.4-25.4,33.9-37.8
					C422,202,421.5,201.5,421.2,201.8L421.2,201.8z"/>
			</g>
		</g>
		<g>
			<path class="st11" d="M388.2,240.7c3.1,2.8,5,6.8,5.3,11"/>
		</g>
		<g>
			<path class="st11" d="M395.3,251.7c23-9,45.4-19.9,66.6-32.5"/>
		</g>
		<g>
			<g>
				<path class="st0" d="M387.8,240.8c-3.9,2.2-8,4.9-11.1,8.1c-2.2,2.3-0.4,4.1,2.2,4.5c0.5,0.1,0.7-0.6,0.2-0.7
					c-0.2,0-0.5-0.1-0.7-0.1c-0.4-1-0.8-2.1-1.2-3.1c0.1-0.3,1-0.9,1.3-1.1c1.2-1,2.4-2,3.6-2.9c2-1.4,4-2.7,6.1-4
					C388.6,241.2,388.2,240.5,387.8,240.8L387.8,240.8z"/>
			</g>
		</g>
		<g>
			<g>
				<path class="st0" d="M379.8,252.1c-1.9,5.9-4.6,11.4-8.3,16.4c-0.3,0.4,0.4,0.8,0.6,0.4c3.7-5.1,6.4-10.6,8.3-16.6
					C380.7,251.9,379.9,251.7,379.8,252.1L379.8,252.1z"/>
			</g>
		</g>
		<g>
			<g>
				<path class="st0" d="M373,270.4c4.1-3.1,7.5-6.8,10.2-11.1c0.3-0.4-0.4-0.8-0.6-0.4c-2.6,4.2-5.9,7.9-9.9,10.9
					C372.3,270,372.6,270.7,373,270.4L373,270.4z"/>
			</g>
		</g>
		<g>
			<g>
				<path class="st0" d="M377.2,269.4c3.1-2.6,5.8-5.6,8-8.9c0.3-0.4-0.4-0.8-0.6-0.4c-2.2,3.3-4.9,6.2-7.9,8.8
					C376.3,269.2,376.8,269.8,377.2,269.4L377.2,269.4z"/>
			</g>
		</g>
		<g>
			<g>
				<path class="st0" d="M384.1,264.4c2.3-2.4,4.4-5,6.1-7.9c0.3-0.4-0.4-0.8-0.6-0.4c-1.7,2.8-3.7,5.4-6,7.8
					C383.3,264.2,383.8,264.8,384.1,264.4L384.1,264.4z"/>
			</g>
		</g>
	</g>
	<g id="head">
		<path class="st12" d="M333.3,94.8c0,0.7-0.1,2.7,0.5,5.2c0.3,1.5,0.8,3.4,2.2,5.5c2,3,4.9,4.4,6.3,4.9c4.4,1.7,8.3,0.7,9.4,0.3
			c0.7,0.9,1.3,1.8,2,2.7c-1.6,0.4-2.7,1.7-2.9,3.2c-0.1,1.1,0.3,2.2,1.1,2.9c1.2,1.2,3,0.9,4,0.8c4.2-0.5,6.5-4.1,6.7-4.5
			c0.8-1.3,1.2-2.6,1.3-3.4c-1.8-2.5-3.6-5-5.3-7.4c1.4-1.4,3.5-3.8,4.8-7.5c0.8-2.2,3-8.5-0.1-12.9c-3.3-4.6-10-4.2-11.9-4.2
			C341.9,80.8,333.7,88.7,333.3,94.8z"/>
		<ellipse transform="matrix(0.913 -0.4079 0.4079 0.913 -8.7877 150.5633)" class="st0" cx="348.7" cy="95.9" rx="0.9" ry="1.4"/>
		<path class="st4" d="M360.3,93.2c-0.3-0.8-1.8-4.8-5.6-6c-2.4-0.8-4.5,0-7.9,1.2c-2.2,0.8-3.1,1.4-7.5,3.7
			c-2.6,1.4-4.7,2.4-6.1,3.1c-1.5-0.2-4.4-0.7-7.2-2.9c-1.3-1-4.2-3.4-4.4-7.1c-0.2-3.1,1.5-5.4,1.9-6c2.6-3.4,6.8-4,11.1-4.7
			c2.5-0.4,6.5-0.7,11.3,0.2c-0.6-1.3-1.5-3.7-1.3-6.7c0.1-1,0.5-7.9,6-10.6c2.6-1.3,6.1-1.5,8.8-0.2c1.9,0.9,2.1,2.1,4.6,3
			c0.7,0.2,2.6,0.9,4.9,0.6c2.2-0.3,3.2-1.4,5-2.3c2.5-1.4,4.7-1.7,8.4-2.2c2.2-0.3,7.9-0.9,14.8,1.4c3.4,1.2,7.7,2.6,11.2,6.8
			c4.4,5.2,4.7,11.3,4.8,13.6c0.1,1.2,0.2,6.8-2.9,13c-4.4,8.8-12.2,12.6-16.3,14.6c-3.6,1.8-11.9,5.8-21.1,3.9
			c-2.4-0.5-8.1-1.7-11.7-6.5c-0.5-0.6-0.8-1.2-1-1.5C360.6,100.6,361.8,97.1,360.3,93.2z"/>
		<g>
			<path class="st11" d="M333.3,95.2c0.1,3.6,0.8,7.3,2.7,10.3c3.2,4.9,9.8,7.1,15.4,5.3c5.5-1.8,9.5-7.4,9.6-13.3"/>
		</g>
		<g>
			<path class="st11" d="M333.3,94.8c-3.1-0.3-6.2-1.4-8.5-3.5c-2.3-2.1-3.7-5.4-3-8.5c0.6-2.8,2.8-5.2,5.4-6.5
				c2.6-1.3,5.5-1.8,8.4-1.9c5-0.3,10.1,0.1,14.7,2.2c4.5,2.1,8.4,6,9.5,10.9"/>
		</g>
		<g>
			<path class="st11" d="M333,94.2c6.2-1.4,11.7-4.8,17.4-7.7c0.7-0.4,1.5-0.8,2.3-0.7c0.9,0,1.7,0.5,2.5,1.1
				c2.5,1.9,4.6,4.3,6.1,7.1c-0.4-2.3-0.9-4.6-1.6-6.8"/>
		</g>
		<g>
			<path class="st11" d="M346,74.7c-2-2.7-1.7-6.5-0.6-9.6c0.7-2.2,1.8-4.4,3.4-6.1s3.9-2.9,6.2-2.9c2.3,0,4.6,1.1,6.5,2.4
				c1.9,1.3,3.8,2.9,6.1,2.7c1.2-0.1,2.3-0.7,3.4-1.3c9.4-5,21.3-5.1,30.8-0.4c1.9,0.9,3.6,2,5.2,3.4c5.7,5.2,7.2,13.9,5.6,21.5
				c-0.6,2.9-1.7,5.8-3.2,8.3c-4.8,8.1-13.6,13-22.7,15.5c-4.7,1.3-9.7,2-14.6,1.1s-9.5-3.6-11.9-7.9"/>
		</g>
		<g>
			<g>
				<path class="st0" d="M351.5,111c0.8,1,1.6,2.1,2.3,3.2c0.3,0.4,0.9,0,0.6-0.4c-0.7-1.2-1.5-2.3-2.4-3.4
					C351.7,110.1,351.2,110.6,351.5,111L351.5,111z"/>
			</g>
		</g>
		<g>
			<path class="st11" d="M351.3,115.6c-0.8,1.2-0.4,2.9,0.7,3.8c1.1,0.9,2.6,1.1,4,0.8c1.6-0.3,3-1.3,4.3-2.2
				c1.9-1.4,3.8-3.3,3.8-5.7"/>
		</g>
		<g>
			<g>
				<path class="st0" d="M341.1,95.8c0.5,2.9,0.8,9.9,5.5,8.9c0.5-0.1,0.3-0.8-0.2-0.7c-3.9,0.9-4.2-5.9-4.6-8.4
					C341.7,95.1,341,95.3,341.1,95.8L341.1,95.8z"/>
			</g>
		</g>
		<path class="st6" d="M352.8,76.6c2.6-2.1,6.4-2.1,8.8,0c2.2,1.9,2.9,5.1,1.7,7.9C359.8,81.9,356.3,79.2,352.8,76.6z"/>
	</g>
</g>
</svg>
